<?xml version="1.0" encoding="utf-8"?>
<!-- Generator: Adobe Illustrator 21.1.0, SVG Export Plug-In . SVG Version: 6.00 Build 0)  -->
<svg version="1.1" id="Layer_1" xmlns="http://www.w3.org/2000/svg" xmlns:xlink="http://www.w3.org/1999/xlink" x="0px" y="0px"
	 viewBox="0 0 329.5 329.5" style="enable-background:new 0 0 329.5 329.5;" xml:space="preserve">
<style type="text/css">
	<!-- .st0 { fill : #FFFFFF; } -->
	.st1 { fill : none; }
	.shapeOrCh {
		animation-name: shapeOriginChanged;
		animation-duration: 8s;
		animation-iteration-count: infinite;
		transform-origin: 50% 50%;
        fill: white;
	}
	@keyframes shapeOriginChanged {
		from { transform: rotate(0deg); }
		to   { transform: rotate(360deg); }
	}
</style>
<path class="shapeOrCh" d="M31,165.6C31,80.8,171.8,2,246.1,49.2c46.1,29.3,68.9,108.5,35.8,169.4c-22.3,41-65.8,66.4-110.2,68
	C96.6,289.3,31,223.5,31,165.6z"/>
	<text x="80" y="185" fill='#B3ACA7' font-size="70" font-weight='bold'>planr.</text>
<!-- <path class="st0" d="M68.4,211.6c-1-5.9,3.1-11.5,9-12.5s11.5,3.1,12.5,9s-3.1,11.5-9,12.5S69.4,217.6,68.4,211.6L68.4,211.6z
	 M119,132.2v55.7c0,4.5-0.8,9-2.2,13.3c-1.3,4.2-3.5,8.1-6.4,11.5c-3,3.5-6.8,6.3-11,8.2c-4.6,2-9.7,3-14.8,2.9
	c-0.8,0-1.5,0-2.2-0.1v-1.1c4.4-1,8.2-2.5,10.4-4.5c2-1.6,3.3-3.8,3.9-6.3c0.8-3.2,1.2-10.2,1.2-20.9v-44.2c0-1.4-0.3-2.7-1-3.9
	c-0.6-1.1-1.5-2.1-2.6-2.8c-1.2-0.7-2.5-1.2-3.9-1.6c-1.5-0.4-3.1-0.8-4.7-0.9v-4.7l32.3-1.6L119,132.2z M94.9,108.2
	c0-6.5,5.3-11.7,11.7-11.7c6.5,0,11.7,5.3,11.7,11.7s-5.3,11.7-11.7,11.7l0,0C100.1,119.9,94.9,114.7,94.9,108.2L94.9,108.2
	L94.9,108.2z"/> -->
<!-- <path class="st0" d="M175.6,191.4c0.9,0.3,1.8,0.5,2.8,0.6v4.7H140V192c1.1-0.1,2.2-0.2,3.3-0.3c0.9-0.1,1.9-0.3,2.8-0.6
	c1.2-0.4,2.2-1.2,2.8-2.2c0.6-1.2,0.8-2.5,0.8-3.8v-37.2c0-1.4-0.4-2.8-1.1-4c-0.6-1.2-1.5-2.2-2.6-3c-0.9-0.6-1.9-1-2.9-1.3
	c-1.3-0.4-2.6-0.6-3.9-0.7v-4.7l30.5-1.7l1,1v50.9c0,1.3,0.2,2.5,0.6,3.7c0.4,1,1.1,1.8,2,2.3C173.9,190.8,174.7,191.1,175.6,191.4z
	 M220,191.4c1.1,0.3,2.3,0.5,3.5,0.6v4.7h-38V192c0.9-0.1,1.9-0.2,2.9-0.3c0.9,0,1.7-0.3,2.5-0.6c0.9-0.4,1.6-1.2,1.8-2.1
	c0.3-1.3,0.4-2.6,0.4-3.9v-29.8c0-4.4-0.8-7.7-2.3-9.9c-1.5-2.2-4-3.4-6.7-3.3c-1.7,0-3.3,0.3-4.9,0.9c-1.3,0.5-2.6,1.2-3.7,2
	l-0.9-0.5V139c1.5-1.4,3.2-2.6,4.9-3.7c2-1.2,4.1-2.1,6.4-2.7c2.7-0.7,5.5-1.1,8.3-1.1c6.4,0,11.4,1.9,14.9,5.7
	c3.5,3.8,5.2,9.2,5.2,16.2v31.1c-0.1,1.3,0.2,2.6,0.7,3.8c0.5,1,1.5,1.8,2.6,2.2C218.3,190.8,219.1,191.1,220,191.4z M267.1,192v4.7
	h-38V192c0.9-0.1,1.9-0.2,2.9-0.3c0.9-0.1,1.7-0.3,2.5-0.6c0.9-0.4,1.6-1.2,1.8-2.1c0.3-1.3,0.4-2.6,0.4-3.9v-29.8
	c0-4.4-0.8-7.7-2.3-9.9c-1.5-2.2-4-3.4-6.7-3.3c-1.7,0-3.3,0.3-4.9,0.9c-1.3,0.5-2.6,1.2-3.7,2l-0.9-0.5V139
	c1.5-1.4,3.2-2.6,4.9-3.7c2-1.2,4.1-2.1,6.4-2.7c2.7-0.7,5.5-1.1,8.3-1.1c6.4,0,11.4,1.9,14.9,5.7c3.5,3.8,5.2,9.2,5.2,16.2v31.1
	c-0.1,1.3,0.2,2.6,0.7,3.8c0.5,1,1.5,1.8,2.6,2.2c0.8,0.4,1.7,0.7,2.5,0.9C264.7,191.7,265.9,191.9,267.1,192L267.1,192z"/> -->
<rect class="st1" width="329.5" height="329.5"/>
</svg>